# xmcd
# 
# Track frame offsets:
#     150
#     20898
#     30658
#     51345
#     73376
#     90948
#     110070
#     127291
#     143586
# 
# Disc length: 2194
# 
# Revision: 0
# Processed by: cddbd v1.5.2PL0 Copyright (c) Steve Scherf et al.
# Submitted via: fre:ac v1.0.27
# 
DISCID=87089009
DTITLE=Rance May - Malnourished
DYEAR=2016
DGENRE=Country
TTITLE0=I Shoulda Lied
TTITLE1=Buick
TTITLE2=Vancouver Girl
TTITLE3=See You Around
TTITLE4=An Ode To Gary
TTITLE5=Sinners Waltz
TTITLE6=Goes As Planned
TTITLE7=Fucked Up
TTITLE8=Long Way To Minnesota
EXTD=
EXTT0=
EXTT1=
EXTT2=
EXTT3=
EXTT4=
EXTT5=
EXTT6=
EXTT7=
EXTT8=
PLAYORDER=
